<?xml version="1.0" encoding="utf-8"?>
<!-- Generator: Adobe Illustrator 16.0.0, SVG Export Plug-In . SVG Version: 6.00 Build 0)  -->
<!DOCTYPE svg PUBLIC "-//W3C//DTD SVG 1.1//EN" "http://www.w3.org/Graphics/SVG/1.1/DTD/svg11.dtd">
<svg version="1.1" id="Layer_1" xmlns="http://www.w3.org/2000/svg" xmlns:xlink="http://www.w3.org/1999/xlink" x="0px" y="0px"
	 width="300px" height="300px" viewBox="-7 -6.5 300 300" enable-background="new -7 -6.5 300 300" xml:space="preserve">
<title>01</title>
<desc>Created with Sketch.</desc>
<g id="Layouts">
	<g id="Start-Now" transform="translate(-247.000000, -420.000000)">
		<g id="_x30_1" transform="translate(240.000000, 390.000000)">
			<g id="shape_04" transform="translate(7.000000, 36.000000)" opacity="0.15">
				<path id="Path" fill="#00AEEF" d="M13.761,51.269c0,0,23.479-40.115,77.709-20.247c65.737,24.102,37.877,36.202,98.637,34.732
					c88.633-2.141,123.957,114.982,53.375,134.003c-74.293,20.023-81.916-4.866-109.424,18.963
					c-27.509,23.83-82.975,44.368-95.017,25.311c-18.203-28.843-0.808-60.558-8.079-95.571
					C24.82,118.816-16.025,86.07,13.761,51.269z"/>
			</g>
			<g id="shadow" transform="translate(15.000000, 277.000000)">
				<ellipse id="Oval" fill="#E6E7E8" cx="134.002" cy="28.756" rx="131.062" ry="9.744"/>
			</g>
			<g id="Layer_13" transform="translate(91.000000, 30.000000)">
				<path id="Path_1_" fill="#D1D3D4" d="M20.748,41.588h112.207c11.076,0,20.053,8.978,20.053,20.053v168.091
					c0,11.074-8.977,20.053-20.053,20.053H20.748c-11.08,0-20.062-8.98-20.062-20.062V61.641c0-5.32,2.114-10.422,5.876-14.183
					S15.428,41.585,20.748,41.588z"/>
				<path id="Oval_1_" fill="#FFFFFF" d="M76.846,227.202c5.131,0,9.289,4.157,9.289,9.286s-4.158,9.285-9.289,9.285
					c-5.127,0-9.285-4.156-9.285-9.285S71.719,227.202,76.846,227.202z"/>
				<circle id="Oval_2_" fill="#D1D3D4" cx="76.846" cy="236.488" r="6.473"/>
				<path id="Rectangle_1_" fill="#DCEEFF" d="M18.87,99.439h108.099c0.85,0,1.537,0.688,1.537,1.538v0.127
					c0,0.849-0.688,1.538-1.537,1.538H18.87c-0.85,0-1.538-0.689-1.538-1.538v-0.127C17.332,100.127,18.02,99.439,18.87,99.439z"/>
				<rect id="Rectangle_2_" x="13.37" y="57.561" fill="#FFFFFF" width="125.61" height="160.82"/>
				<rect id="Rectangle_3_" x="13.37" y="57.065" fill="#E6E7E8" width="123.606" height="13.628"/>
				<rect id="Rectangle_4_" x="17.332" y="60.93" fill="#FFFFFF" width="53.82" height="7.564"/>
				<path id="Path_2_" fill="#E6E7E8" d="M126.9,83.163H18.928c-0.883-0.005-1.596-0.723-1.596-1.606l0,0
					c0.016-0.872,0.725-1.572,1.596-1.577H126.9c0.887,0.005,1.602,0.721,1.604,1.606l0,0
					C128.486,82.459,127.775,83.158,126.9,83.163L126.9,83.163z"/>
				<path id="Path_3_" fill="#E6E7E8" d="M126.9,92.897H18.928c-0.879-0.005-1.591-0.717-1.596-1.597l0,0
					c0.011-0.875,0.721-1.582,1.596-1.587H126.9c0.887,0.005,1.602,0.722,1.604,1.606l0,0
					C128.486,92.194,127.775,92.892,126.9,92.897z"/>
				<rect id="Rectangle_5_" x="18.568" y="152.491" fill="#E6E7E8" width="110.397" height="2.55"/>
				<rect id="Rectangle_6_" x="18.84" y="160.27" fill="#E6E7E8" width="68.258" height="2.434"/>
				<rect id="Rectangle_7_" x="18.84" y="167.268" fill="#E6E7E8" width="68.258" height="2.435"/>
				<rect id="Rectangle_8_" x="20.009" y="179.436" fill="#E6E7E8" width="57.423" height="29.291"/>
				<rect id="Rectangle_9_" x="93.26" y="124.232" fill="#A5E6F1" width="35.705" height="21.202"/>
				<rect id="Rectangle_10_" x="92.578" y="150.086" fill="#98E5FA" width="36.445" height="1.732"/>
				<rect id="Rectangle_11_" x="92.578" y="153.688" fill="#98E5FA" width="36.445" height="1.732"/>
				<rect id="Rectangle_12_" x="92.742" y="157.416" fill="#98E5FA" width="36.281" height="1.732"/>
				<rect id="Rectangle_13_" x="92.742" y="161.368" fill="#E6E7E8" width="36.281" height="1.731"/>
				<rect id="Rectangle_14_" x="92.578" y="165.146" fill="#E6E7E8" width="36.445" height="1.73"/>
				<rect id="Rectangle_15_" x="92.742" y="168.874" fill="#E6E7E8" width="36.281" height="1.729"/>
				<rect id="Rectangle_16_" x="92.742" y="172.825" fill="#E6E7E8" width="36.281" height="1.731"/>
				<rect id="Rectangle_17_" x="88.859" y="179.114" fill="#E6E7E8" width="43.871" height="29.34"/>
				<rect id="Rectangle_18_" x="20.096" y="112.239" fill="#E6E7E8" width="23.83" height="31.714"/>
				<rect id="Rectangle_19_" x="52.852" y="112.317" fill="#E6E7E8" width="23.83" height="31.714"/>
				<path id="Path_4_" fill="#0079DB" d="M174.326,44.293L59.15,42.133c0,0-1.733-14.251,11.68-15.575l87.785,0.827
					c0.75-0.166,6.688-1.382,11.535,2.628C174.232,33.537,175.867,39.126,174.326,44.293z"/>
				<path id="Path_5_" fill="#E8F5F6" d="M164.105,25.964L71.27,26.626c0,0,11.684,0.974,12.52,16.548L83.712,151.04
					c0,0-0.573,16.853,32.006,11.012l59.478-1.521L174.893,35.99c0-5.247-4.867-9.491-10.813-9.491L164.105,25.964z"/>
				<path id="Path_6_" fill="#A9E4EB" d="M165.156,92.634h-47.504c-0.592-0.005-1.07-0.488-1.07-1.08l0,0
					c0-0.593,0.479-1.075,1.07-1.081h47.504c0.598,0,1.08,0.483,1.08,1.081l0,0C166.236,92.15,165.754,92.634,165.156,92.634z"/>
				<path id="Path_7_" fill="#A9E4EB" d="M165.156,98.27h-47.504c-0.592-0.005-1.07-0.488-1.07-1.08l0,0
					c0-0.593,0.479-1.075,1.07-1.081h47.504c0.598,0,1.08,0.484,1.08,1.081l0,0C166.236,97.787,165.754,98.27,165.156,98.27z"/>
				<path id="Path_8_" fill="#A9E4EB" d="M165.156,103.449h-47.504c-0.592-0.005-1.07-0.487-1.07-1.081l0,0
					c0-0.593,0.479-1.075,1.07-1.08h47.504c0.598,0,1.08,0.483,1.08,1.08l0,0C166.236,102.966,165.754,103.449,165.156,103.449z"/>
				<path id="Path_9_" fill="#A9E4EB" d="M165.156,109.932h-47.504c-0.592-0.005-1.07-0.487-1.07-1.08l0,0
					c0-0.593,0.479-1.075,1.07-1.081h47.504c0.598,0,1.08,0.484,1.08,1.081l0,0C166.236,109.448,165.754,109.932,165.156,109.932z"
					/>
				<path id="Path_10_" fill="#A9E4EB" d="M165.156,115.539h-47.504c-0.592-0.006-1.07-0.488-1.07-1.081l0,0
					c0-0.593,0.479-1.075,1.07-1.08h47.504c0.598,0,1.08,0.484,1.08,1.08l0,0C166.236,115.056,165.754,115.539,165.156,115.539z"/>
				<path id="Path_11_" fill="#A9E4EB" d="M165.156,120.727h-47.504c-0.592-0.005-1.07-0.487-1.07-1.081l0,0
					c0-0.593,0.479-1.075,1.07-1.08h47.504c0.598,0,1.08,0.483,1.08,1.08l0,0C166.236,120.244,165.754,120.727,165.156,120.727z"/>
				<path id="Path_12_" fill="#A9E4EB" d="M165.156,127.678h-47.504c-0.592-0.005-1.07-0.487-1.07-1.08l0,0
					c0-0.593,0.479-1.075,1.07-1.081h47.504c0.287,0,0.561,0.114,0.766,0.316c0.201,0.203,0.314,0.478,0.314,0.765l0,0
					C166.236,127.194,165.754,127.678,165.156,127.678z"/>
				<path id="Path_13_" fill="#A9E4EB" d="M165.156,133.246h-47.504c-0.592-0.005-1.07-0.487-1.07-1.08l0,0
					c0-0.593,0.479-1.075,1.07-1.081h47.504c0.598,0,1.08,0.484,1.08,1.081l0,0C166.236,132.762,165.754,133.246,165.156,133.246z"
					/>
				<path id="Path_14_" fill="#A9E4EB" d="M165.156,138.386h-47.504c-0.592-0.005-1.07-0.487-1.07-1.081l0,0
					c0-0.593,0.479-1.074,1.07-1.08h47.504c0.598,0,1.08,0.483,1.08,1.08l0,0C166.236,137.902,165.754,138.386,165.156,138.386z"/>
				<path id="Path_15_" fill="#A9E4EB" d="M166.053,41.266H90.455c-0.596,0-1.08-0.484-1.08-1.081l0,0
					c0.006-0.593,0.488-1.071,1.08-1.071h75.598c0.594,0,1.074,0.478,1.08,1.071l0,0C167.133,40.783,166.648,41.266,166.053,41.266
					L166.053,41.266z"/>
				<path id="Path_16_" fill="#A9E4EB" d="M166.053,80.136H90.455c-0.596,0-1.08-0.484-1.08-1.081l0,0c0-0.596,0.484-1.08,1.08-1.08
					h75.598c0.596,0,1.08,0.484,1.08,1.08l0,0C167.133,79.652,166.648,80.136,166.053,80.136z"/>
				<path id="Path_17_" fill="#A9E4EB" d="M166.053,86.181H90.455c-0.596,0-1.08-0.484-1.08-1.081l0,0c0-0.596,0.484-1.08,1.08-1.08
					h75.598c0.596,0,1.08,0.484,1.08,1.08l0,0C167.133,85.697,166.648,86.181,166.053,86.181z"/>
				<path id="Path_18_" fill="#A9E4EB" d="M166.053,46.455H90.455c-0.596,0-1.08-0.484-1.08-1.081l0,0
					c0-0.597,0.484-1.081,1.08-1.081h75.598c0.596,0,1.08,0.484,1.08,1.081l0,0C167.133,45.971,166.648,46.455,166.053,46.455z"/>
				<path id="Path_19_" fill="#A9E4EB" d="M166.053,52.061h-47.504c-0.285,0-0.562-0.113-0.764-0.316
					c-0.203-0.203-0.316-0.478-0.316-0.764l0,0c0.006-0.593,0.486-1.071,1.08-1.071h47.504c0.594,0,1.074,0.479,1.08,1.071l0,0
					C167.133,51.578,166.648,52.061,166.053,52.061L166.053,52.061z"/>
				<path id="Path_20_" fill="#A9E4EB" d="M166.053,57.678h-47.504c-0.287,0.008-0.566-0.1-0.777-0.299
					c-0.207-0.199-0.326-0.474-0.332-0.762l0,0c0-0.597,0.482-1.081,1.08-1.081h47.533c0.586,0.016,1.051,0.495,1.051,1.081l0,0
					C167.094,57.195,166.631,57.663,166.053,57.678z"/>
				<path id="Path_21_" fill="#A9E4EB" d="M166.053,63.295h-47.504c-0.285,0-0.562-0.113-0.764-0.316
					c-0.203-0.203-0.316-0.478-0.316-0.764l0,0c0-0.287,0.113-0.562,0.316-0.765c0.201-0.202,0.479-0.316,0.764-0.316h47.504
					c0.596,0,1.08,0.483,1.08,1.081l0,0C167.133,62.811,166.648,63.295,166.053,63.295z"/>
				<path id="Path_22_" fill="#A9E4EB" d="M166.053,68.902h-47.504c-0.285,0-0.562-0.114-0.764-0.316
					c-0.203-0.203-0.316-0.478-0.316-0.765l0,0c0.006-0.593,0.486-1.07,1.08-1.07h47.504c0.594,0,1.074,0.478,1.08,1.07l0,0
					C167.133,68.418,166.648,68.902,166.053,68.902L166.053,68.902z"/>
				<path id="Path_23_" fill="#A9E4EB" d="M166.053,74.519h-47.504c-0.285,0-0.562-0.114-0.764-0.316
					c-0.203-0.203-0.316-0.478-0.316-0.764l0,0c0-0.287,0.113-0.562,0.316-0.764c0.201-0.203,0.479-0.316,0.764-0.316h47.504
					c0.596,0,1.08,0.484,1.08,1.081l0,0C167.133,74.035,166.648,74.519,166.053,74.519z"/>
				<circle id="Oval_3_" fill="#A9E4EB" cx="102.105" cy="62.204" r="12.305"/>
				<path id="Path_24_" fill="#0079DB" d="M101.807,61.144L101.807,61.144c-2.148,0-3.895-1.743-3.895-3.894l0,0
					c0-2.15,1.744-3.894,3.895-3.894l0,0c2.15,0,3.895,1.743,3.895,3.894l0,0C105.699,59.401,103.957,61.144,101.807,61.144z"/>
				<path id="Path_25_" fill="#0079DB" d="M107.033,70.012c0.139-0.639,0.209-1.292,0.205-1.947c0-3.894-2.355-7.067-5.268-7.067
					c-2.91,0-5.258,3.164-5.258,7.067c-0.002,0.654,0.062,1.307,0.195,1.947H107.033z"/>
				<path id="Rectangle_20_" fill="#A9E4EB" d="M94.078,90.493h7.436c1.881,0,3.408,1.526,3.408,3.407v7.437
					c0,1.882-1.527,3.407-3.408,3.407h-7.436c-1.883,0-3.408-1.525-3.408-3.407V93.9C90.67,92.018,92.195,90.493,94.078,90.493z"/>
				<path id="Rectangle_21_" fill="#A9E4EB" d="M94.078,108.628h7.436c1.881,0,3.408,1.525,3.408,3.407v7.437
					c0,1.882-1.527,3.407-3.408,3.407h-7.436c-1.883,0-3.408-1.525-3.408-3.407v-7.437C90.67,110.153,92.195,108.628,94.078,108.628
					z"/>
				<path id="Rectangle_22_" fill="#A9E4EB" d="M94.078,125.906h7.436c1.881,0,3.408,1.525,3.408,3.407v7.437
					c0,1.882-1.527,3.407-3.408,3.407h-7.436c-1.883,0-3.408-1.525-3.408-3.407v-7.437C90.67,127.432,92.195,125.906,94.078,125.906
					z"/>
				<path id="Path_26_" fill="#0079DB" d="M100.17,163.148c0,0,13.717,0.556,13.404-15.225l76.375-0.769
					c0,0,4.148,17.016-19.369,15.634L100.17,163.148z"/>
			</g>
			<g id="Layer_12" transform="translate(8.000000, 53.000000)">
				<path id="Path_27_" fill="#F9C4C9" d="M110.046,52.229c-0.769-0.428-5.84,6.727-5.84,6.727l-0.643-1.567
					c-0.896-3.436-2.92-1.295-2.92-1.295c0.95,2.285,1.75,4.629,2.395,7.019c0.11,1.008,0.162,2.023,0.156,3.037
					c0.185-0.292,0.351-0.467,0.477-0.467l4.234,2.687c1.83-2.268,4.38-5.753,5.179-8.411
					C114.388,55.665,110.825,52.658,110.046,52.229z"/>
				<path id="Path_28_" fill="#F17B21" d="M103.184,66.149c-1.947,3.135-6.755,21.416-6.755,21.416
					C92.223,79.028,77.3,63.404,77.3,63.404l0.126,0.662c0,0,7.476,9.345,8.664,25.417c0.146,1.947-3.953,4.955-3.894,6.979
					c4.059,4.478,14.358,10.221,14.67,10.445c11.497,7.854,11.106-38.499,11.106-38.499h-0.068l-4.273-2.687
					C103.534,65.682,103.369,65.857,103.184,66.149z"/>
				<path id="Path_29_" fill="#0B52FF" d="M65.463,243.645l0.545,1.732c0,0,3.592,7.389,2.794,8.393
					c-0.798,1.002-8.985,0.799-9.988-0.604c-1.002-1.401,1.197-5.985,1.197-5.985l0.429-3.515
					C61.803,243.752,63.994,243.704,65.463,243.645z"/>
				<path id="Path_30_" fill="#0B52FF" d="M80.697,143.42c2.298-0.257,4.574-0.674,6.814-1.246c1.005-0.277,1.983-0.65,2.92-1.107
					l28.95,100.643c-0.652,0.32-2.356,0.906-4.147,1.49l1.286,2.58c0,0,14.776-1.793,15.38,0.973s0.204,5.986-6.59,5.587
					c-4.594-0.349-9.143-1.151-13.579-2.394v-5.665l-2.005,0.622L75.364,168.73v-0.242L80.697,143.42z"/>
				<path id="Path_31_" fill="#F6981F" d="M58.26,63.794c1.373,0.604,5.14,4.594,7.194,5.539c2.054,0.944,4.253,2.687,5.509,0.789
					c-0.623,1.733,1.947,1.11,2.521,0.477c0.574-0.633,1.869-4.984,2.044-7.505c1.761,5.392,6.872,20.033,7.583,22.389
					c0.867,2.804,2.152,8.401,2.152,8.401s0.166-0.37,0.36-0.896c0,0.438,0.107,0.896,0.156,1.363
					c-0.896-0.399,2.589,18.913,2.628,19.538c0.525,7.864-12.489,10.609-17.152,13.131c2.618-1.724-19.294-0.535-19.294-0.535
					c-0.739-0.74-1.586-46.988-6.639-56.012C45.488,67.687,53.636,61.847,58.26,63.794z"/>
				<path id="Path_32_" fill="#FF769D" d="M71.392,61.467c0.722,1.476,1.121,3.089,1.168,4.73
					C72.316,64.816,71.751,63.093,71.392,61.467z"/>
				<path id="Path_33_" fill="#FF769D" d="M69.795,68.145l1.489,0.808h0.38c-0.351,0.331-0.609,0.747-0.75,1.208
					C71.099,69.936,70.652,69.147,69.795,68.145z"/>
				<path id="Path_34_" fill="#FF769D" d="M67.994,103.422c-0.798,0.292-1.363,0.379-1.558,0.185
					C66.962,103.621,67.486,103.558,67.994,103.422L67.994,103.422z"/>
				<path id="Path_35_" fill="#FF769D" d="M44.573,111.92c-0.73-6.726-1.401-14.767-1.947-22.029
					c1.392,2.453,2.92,5.159,4.526,7.904C46.238,103.033,45.303,108.338,44.573,111.92z"/>
				<path id="Path_36_" fill="#F6981F" d="M45.761,121.1c2.56-3.261,4.711-11.738,5.685-16.128
					c4.196,6.814,8.118,12.597,9.919,13.257c2.56,0.975,11.788-6.024,19.05-11.982c2.23,0.09,4.463,0.041,6.688-0.146
					c0.691,6.132,1.285,11.339,1.363,11.681c0.146,0.594,0.973,10.708,1.344,15.964c-1.625,0.974-14.767,4.06-16.938,4.371
					c-2.17,0.312-20.052,0-21.727,2.385c-0.691-2.151-2.064-6.493-3.242-10.552c-0.798-2.784-1.509-5.432-1.82-7.125
					C45.956,122.277,45.858,121.704,45.761,121.1z"/>
				<path id="Path_37_" fill="#F9C4C9" d="M53.052,36.849c0-0.126,0.049-0.244,0.078-0.36l0,0
					C53.101,36.616,53.071,36.732,53.052,36.849z"/>
				<path id="Path_38_" fill="#F9C4C9" d="M52.887,39.039c0-0.359,0-0.72,0-1.071c0,0,0,0.107,0,0.166
					C52.935,38.416,52.906,38.718,52.887,39.039z"/>
				<path id="Path_39_" fill="#0B52FF" d="M76.959,38.641c-0.033-1.714-0.435-3.4-1.178-4.945c-0.526,0.703-1.242,1.24-2.064,1.548
					c-2.638,1.246-6.648,0.759-9.189,0.204c-0.974-0.204-2.21,1.236-2.774,1.947c-0.605,0.786-1.051,1.682-1.314,2.638
					c-0.497,1.781,0,3.689-0.701,5.432c-0.593-0.302-1.032-0.428-1.343-1.061c-0.318-0.597-0.428-1.282-0.312-1.947
					c0.243-1.304,0.117-3.173-0.924-4.147c-1.042-0.973-2.055,0.137-2.395,1.178c-0.484,1.43-0.335,2.999,0.409,4.312
					c0.252,0.324,0.562,0.599,0.915,0.808c0.283,0.281,0.543,0.584,0.778,0.905c0.331,0.379,0.721,0.682,0.769,1.178
					c0.078,0.846,0,1.732,0,2.58c0,0.331,0.078,0.467-0.175,0.671c-0.487,0.399-0.974-0.098-1.334-0.448
					c-1.32-1.521-2.314-3.297-2.92-5.217c-0.403-1.566-0.542-3.188-0.409-4.799c0.007-1.087,0.108-2.172,0.302-3.242
					c0.708-3.033,2.556-5.678,5.159-7.388c1.199-0.843,2.509-1.515,3.894-1.996c1.508-0.497,3.085-0.915,4.624-1.285
					c1.338-0.408,2.745-0.547,4.137-0.409c1.204,0.218,2.394,0.511,3.563,0.876c1.771,0.513,3.537,1.094,5.295,1.743l-2.599,3.894
					c-0.098,0.137,0.974,5.033,0.194,6.581c-0.251,0.836-0.405,1.699-0.457,2.57C76.972,40.096,76.988,39.368,76.959,38.641z"/>
				<path id="Path_40_" fill="#F9C4C9" d="M73.416,66.003c-0.11,0.514-0.27,1.016-0.477,1.499c-0.351,1.032-1.11,1.197-1.275,1.402
					c-0.117,0-0.574,1.256-0.721,1.256l-1.148-2.015c-2.107-2.457-4.656-4.497-7.515-6.016c-2.862-1.431-3.815-2.746-4.127-3.563
					l-0.418-7.943l0,0v-0.827v-3.407l-0.448-0.341l-1.227-1.421l0,0c-0.857-0.282-1.528-1.635-1.567-3.271
					c0-1.859,0.73-3.388,1.742-3.417c1.013-0.029,1.879,1.46,1.947,3.319c0.014,0.562-0.052,1.122-0.195,1.665
					c0.107,0.798,0.39,2.025,1.168,2.307c0.2,0.075,0.395,0.163,0.584,0.263c0.325-0.78,0.484-1.619,0.467-2.463
					c0-0.643,0.156-2.521,0.166-2.638c0.484-2.125,1.836-3.951,3.729-5.033c1.695,0.428,3.44,0.628,5.188,0.594
					c4.994-0.243,6.463-2.258,6.463-2.258c0.731,1.522,1.136,3.18,1.188,4.867c0,0,0,0.059,0,0.087c0.005,0.046,0.005,0.091,0,0.137
					c0.017,0.668-0.002,1.338-0.059,2.005c-0.331,4.867-0.535,12.313-3.465,14.601c-0.448,0.351-2.443,0.526-2.462,1.032
					c-0.087,2.277,0.087,2.414,0.087,2.414c0,0.798,1.947,2.316,2.112,3.26C73.552,63.706,73.183,64.611,73.416,66.003z"/>
				<path id="Path_41_" fill="#2075FF" d="M63.662,145.172c2.268-0.191,10.582-0.875,17.035-1.752l-5.305,25.066v0.242
					l-8.294,73.084l-0.078,1.772l-1.538,0.058c-1.469,0.062-3.66,0.107-5.023,0c-0.691,0-1.178-0.136-1.226-0.281
					c-0.195-0.604-4.79-33.748-4.39-42.732c0.34-7.604-1.665-43.861-2.288-54.812C54.901,146.458,60.324,145.465,63.662,145.172z"/>
				<path id="Path_42_" fill="#2075FF" d="M51.446,104.97c-0.905,4.391-3.096,12.869-5.656,16.13
					c-0.366,0.521-0.863,0.938-1.44,1.207c-3.894,1.508-3.894-0.855-5.169-2.58c-1.275-1.724,3.446-3.019,4.302-3.445
					c0.195-0.098,0.604-1.782,1.12-4.361c0.73-3.583,1.665-8.888,2.579-14.125C48.525,100.21,50.005,102.653,51.446,104.97z"/>
				<path id="Path_43_" fill="#F17B21" d="M85.798,92.442c-0.068,0.194-0.126,0.37-0.195,0.535c-0.194,0.526-0.36,0.896-0.36,0.896
					s-1.285-5.597-2.152-8.4c-0.71-2.307-5.84-16.948-7.583-22.389c0.019-0.282,0.019-0.565,0-0.847
					c-0.055-0.483-0.229-0.944-0.506-1.343c0.448-0.321,2.356,0.175,4.419,1.489c0,0,2.696,2.122,3.076,3.115
					c1.519,3.981,2.92,13.434,3.816,24.453C86.29,90.805,86.115,91.648,85.798,92.442L85.798,92.442z"/>
				<path id="Path_44_" fill="#2075FF" d="M30.098,115.386c0,2.589,3.67,11.847,3.67,11.847s0.478,0.848-0.632,1.451
					c-0.548,0.266-1.138,0.434-1.743,0.496c-3.231,0.43-4.741-9.479-6.464-16.374c-1.577-6.327,1.548-7.933,3.076-8.488l0.37-0.126
					C28.375,104.191,30.098,112.835,30.098,115.386z"/>
				<path id="Path_45_" fill="#F17B21" d="M62.28,62.129c2.859,1.519,5.408,3.559,7.515,6.016c0.857,0.973,1.304,1.791,1.148,2.015
					c-1.255,1.898-3.465,0.166-5.509-0.789s-7.651-3.572-8.985-4.254c-3.348-1.713-7.359,0.886-7.359,0.886
					s-3.816-0.564-0.906-7.563c0.078-0.195,0.137-0.37,0.224-0.564c3.476-7.564,9.462-3.816,9.462-3.816l0.155,3.621
					c-0.032,0.292,0.012,0.587,0.127,0.857C58.464,59.384,59.418,60.698,62.28,62.129z"/>
				<path id="Path_46_" fill="#F17B21" d="M75.509,63.132c-0.175,2.521-1.479,6.941-2.044,7.505
					c-0.564,0.564-3.144,1.255-2.521-0.477c0.125-0.476,0.373-0.909,0.721-1.256c0.293-0.497,0.528-1.026,0.701-1.577
					c1.139-2.92-1.295-8.507-1.295-8.507l-0.107-1.295c0,0,2.92,1.693,4.05,3.417c0.278,0.399,0.452,0.861,0.506,1.344
					C75.535,62.567,75.532,62.85,75.509,63.132L75.509,63.132z"/>
				<path id="Path_47_" fill="#F17B21" d="M72.861,138.086c2.171-0.312,15.312-3.368,16.938-4.37l0.078-0.049
					c1.256-0.974,2.521,2.842,2.521,4.419c0,1.141-0.087,2.035-1.947,2.979c-0.938,0.457-1.915,0.83-2.92,1.108
					c-2.24,0.572-4.517,0.989-6.814,1.246c-6.454,0.877-14.767,1.56-17.035,1.752c-3.338,0.293-8.761,1.286-11.126,0.663
					c-0.188-0.047-0.37-0.111-0.545-0.195c-1.139-0.582-1.227-3.037-0.974-4.867c0.015-0.108,0.059-0.213,0.126-0.301
					C52.789,138.104,70.72,138.389,72.861,138.086z"/>
				<path id="Path_48_" fill="#005EF0" d="M18.68,142.417l12.158-7.901l-3.543-5.441l-9.919,6.464l-2.219,1.438l-2.229,1.45
					C15.507,141.396,17.736,143.031,18.68,142.417z"/>
				<path id="Path_49_" fill="#0F3872" d="M4.721,125.896l2.219-1.448l2.229-1.439l9.939-6.465l-3.543-5.441l-12.12,7.904
					C2.511,119.62,3.096,122.326,4.721,125.896z"/>
				<path id="Path_50_" fill="#E5F2FD" d="M154.824,40.353c-0.545-0.876,2.16-2.988,2.064-4.176l-15.07,15.76l-3,3.096l-1.616,1.694
					c0.89,0.12,1.794,0.097,2.677-0.068c1.567-0.195,3.224-0.37,4.079,0.662c0.387,0.524,0.596,1.159,0.596,1.81l0.975-1.508
					l11.145-17.035C155.818,40.782,155.057,40.733,154.824,40.353z"/>
				<path id="Path_51_" fill="#FFD4B3" d="M132.494,38.591c0.536,1.188-0.623,2.716-1.684,4.157
					c-0.713,0.787-1.225,1.736-1.489,2.765l2.657-0.974l4.079-1.47l20.541-7.398c-1.052-0.73-4.595,0.555-5.093-0.438
					c-0.103-0.375-0.01-0.776,0.244-1.071l-19.41,3.203l-0.973,0.155C131.844,37.75,132.24,38.125,132.494,38.591z"/>
				<path id="Path_52_" fill="#F4E7D8" d="M133.428,46.778c1.82-0.175,3.806-0.467,5.003-0.059c0.727,0.191,1.19,0.903,1.071,1.646
					c-0.126,1.247-1.275,2.92-2.171,4.4s-1.46,2.707-0.905,3.504c0.193,0.252,0.469,0.428,0.779,0.497l1.616-1.733l2.998-3.134
					l15.07-15.76c-0.01-0.091-0.037-0.181-0.078-0.263c-0.053-0.09-0.127-0.167-0.215-0.224l-20.54,7.397l-4.079,1.47l-2.657,0.974
					c-0.015,0.213,0.032,0.426,0.136,0.613C129.943,47.021,131.598,46.963,133.428,46.778z"/>
				<path id="Path_53_" fill="#003BA4" d="M8.43,132.432c1.353,2.1,2.849,4.104,4.478,5.995l2.229-1.45l2.239-1.438l9.938-6.464
					l-8.147-12.529l-9.938,6.465L7,124.448l-2.278,1.448C5.808,128.158,7.047,130.34,8.43,132.432L8.43,132.432z"/>
				<path id="Path_54_" fill="#FF769D" d="M151.504,35.253c0.498,0.974,4.041-0.292,5.092,0.438
					c0.088,0.057,0.162,0.133,0.215,0.224c0.041,0.083,0.068,0.171,0.078,0.263c0.096,1.188-2.609,3.3-2.062,4.176
					c0.23,0.38,0.973,0.428,1.867,0.273l5.324-8.128l-10.309,1.684C151.469,34.483,151.393,34.884,151.504,35.253z"/>
				<path id="Path_55_" fill="#00BEED" d="M143.922,57.359c-0.855-1.032-2.512-0.857-4.079-0.662
					c-0.883,0.166-1.787,0.188-2.677,0.069l-1.11,1.187l-0.847,0.886l-96.292,62.669l3.543,5.441l99.396-64.674l1.16-0.759
					l1.537-2.346C144.543,58.514,144.32,57.879,143.922,57.359z"/>
				
					<rect id="Rectangle_23_" x="27.942" y="124.758" transform="matrix(-0.8382 0.5453 -0.5453 -0.8382 133.9055 216.2843)" fill="#EBEBEB" width="13.861" height="6.492"/>
				
					<rect id="Rectangle_24_" x="16.25" y="106.79" transform="matrix(-0.8382 0.5454 -0.5454 -0.8382 102.6235 189.6242)" fill="#C4C4C4" width="13.862" height="6.493"/>
				<path id="Path_56_" fill="#0044CC" d="M30.77,108.98l96.282-62.65l0.156-0.059l2.112-0.759c0.265-1.029,0.776-1.978,1.489-2.765
					c1.061-1.44,2.22-2.92,1.684-4.157c-0.249-0.464-0.637-0.838-1.109-1.071l-3.602,0.584l-2.998,1.947l-97.557,63.489
					L30.77,108.98z"/>
				<path id="Path_57_" fill="#007EE3" d="M135.209,58.859l0.847-0.886l1.149-1.207c-0.31-0.069-0.586-0.245-0.779-0.497
					c-0.555-0.798,0.068-2.103,0.905-3.504s2.044-3.153,2.171-4.4c0.12-0.742-0.344-1.454-1.071-1.646
					c-1.197-0.409-3.183-0.117-5.003,0.059c-1.82,0.176-3.485,0.243-3.972-0.652c-0.104-0.187-0.151-0.4-0.136-0.613l-2.112,0.759
					l-0.156,0.059L30.77,108.98l8.147,12.528L135.209,58.859z"/>
				
					<rect id="Rectangle_25_" x="22.1" y="111.551" transform="matrix(-0.8382 0.5454 -0.5454 -0.8382 118.2787 202.9525)" fill="#D9D9D9" width="13.862" height="14.944"/>
				<path id="Path_58_" fill="#F9C4C9" d="M67.293,104.425h-0.107l1.762,6.814l2.677-0.419l1.947-0.331
					c8.761-1.557,6.182-5.841,6.182-8.274c0-2.433-6.814-1.791-6.814-1.791s2.842-3.261-0.555-4.672
					c-0.34-0.146-1.343,1.625-2.346,3.621c-1.149,2.278-2.268,4.78-2.268,4.78L67.293,104.425z"/>
				<path id="Path_59_" fill="#F17B21" d="M68.646,113.137c0.545-0.467,0.847-0.75,0.847-0.75l-0.341-1.119l-1.762-5.841
					l-0.642-2.093l-15.633,6.6c-1.49-16.256-2.2-38.782-4.391-41.273c-0.074-0.12-0.196-0.2-0.335-0.221
					c-0.139-0.021-0.28,0.021-0.385,0.114c-19.42,14.747-7.252,46.383-1.947,54.307c0.808,1.207,2.16,1.936,3.611,1.947
					C54.24,125.236,65.493,115.882,68.646,113.137z"/>
			</g>
		</g>
	</g>
</g>
</svg>
